<?xml version="1.0"?>
<svg width="122.881" height="122.88" xmlns="http://www.w3.org/2000/svg" xmlns:svg="http://www.w3.org/2000/svg" enable-background="new 0 0 122.881 122.88" version="1.1" xml:space="preserve">
 <g class="layer">
  <title>Layer 1</title>
  <g id="svg_1">
   <path d="m61.44,0c16.97,0 32.33,6.88 43.44,18c11.12,11.11 18,26.47 18,43.44c0,16.97 -6.88,32.33 -18,43.44c-11.11,11.12 -26.47,18 -43.44,18c-16.97,0 -32.33,-6.88 -43.44,-18c-11.12,-11.11 -18,-26.47 -18,-43.44c0,-16.97 6.88,-32.33 18,-43.45c11.11,-11.11 26.47,-17.99 43.44,-17.99l0,0zm18.72,37.37c1.3,-1.3 3.41,-1.3 4.71,0c1.3,1.3 1.3,3.41 0,4.71l-19.36,19.36l19.36,19.37c1.3,1.3 1.3,3.41 0,4.71c-1.3,1.3 -3.41,1.3 -4.71,0l-19.36,-19.36l-19.36,19.36c-1.31,1.3 -3.42,1.3 -4.72,0c-1.3,-1.3 -1.3,-3.41 0,-4.71l19.37,-19.36l-19.37,-19.37c-1.3,-1.3 -1.3,-3.41 0,-4.71c1.3,-1.3 3.41,-1.3 4.72,0l19.36,19.36l19.36,-19.36l0,0zm20.01,-14.66c-9.91,-9.91 -23.6,-16.04 -38.73,-16.04c-15.13,0 -28.82,6.13 -38.73,16.04c-9.91,9.91 -16.04,23.6 -16.04,38.73c0,15.12 6.13,28.82 16.04,38.73c9.91,9.91 23.6,16.04 38.73,16.04c15.13,0 28.82,-6.13 38.73,-16.04c9.91,-9.91 16.04,-23.61 16.04,-38.73c0.01,-15.13 -6.13,-28.82 -16.04,-38.73l0,0z" fill="#26c485" id="svg_2"/>
  </g>
 </g>
</svg>